# xmcd
#
# Track frame offsets:
#	150
#	15705
#	29450
#	46647
#	62510
#	73346
#	84154
#	90168
#	100980
#	114827
#	129411
#	145223
#	159086
#	173691
#	189366
#	204071
#	221829
#	235112
#	251804
#	267949
#	283508
#	295029
#	314466
#	329202
#
# Disc length: 4667 seconds
#
# Revision: 0
# Processed by: cddbd v1.5.2PL0 Copyright (c) Steve Scherf et al.
# Submitted via: EasyCDDAExtractor 10.5.1.1
#
DISCID=49123918
DTITLE=Various Artist - Country Hits, Vol. 03
DYEAR=2007
DGENRE=Country
TTITLE0=Reba McEntire - One Promise Too Late
TTITLE1=Travis Tritt - Livin' On Borrowed Time
TTITLE2=Dixie Chicks - Hello Mr. Heartache
TTITLE3=The Judds - Why Not Me
TTITLE4=Ronnie Milsap - Pure Love
TTITLE5=Linda Ronstadt - Silver Threads And Golden Needles
TTITLE6=Johnny Cash - A Beautiful Life
TTITLE7=Ronnie Milsap - Daydreams About Night Things
TTITLE8=Reba McEntire - The Fear Of Being Alone
TTITLE9=The Judds - Mama He's Crazy
TTITLE10=Travis Tritt - This One's Gonna Hurt You (For A Long, Long Time)
TTITLE11=Willie Nelson - Highwayman (feat. Waylon Jennings, Johnny Cash and Kris
TTITLE11=Kristofferson)
TTITLE12=Dolly Parton - Harper Valley PTA
TTITLE13=Alabama - Down Home
TTITLE14=Ronnie Milsap - A Woman In Love
TTITLE15=The Judds - One Hundred And Two
TTITLE16=Travis Tritt - A Hundred Years From Now
TTITLE17=Reba McEntire - How Was I To Know
TTITLE18=Ronnie Milsap - I Wouldnt Have Missed It For The World
TTITLE19=Travis Tritt - Draggin' My Heart Around
TTITLE20=Crystal Gayle - Never Ending Song Of Love
TTITLE21=Dixie Chicks - Everybody Knows
TTITLE22=The Judds - Talk About Love
TTITLE23=Reba McEntire - Does The Wind Still Blow In Oklahoma (With Ronnie Dun
TTITLE23=n)
EXTD=
EXTT0=
EXTT1=
EXTT2=
EXTT3=
EXTT4=
EXTT5=
EXTT6=
EXTT7=
EXTT8=
EXTT9=
EXTT10=
EXTT11=
EXTT12=
EXTT13=
EXTT14=
EXTT15=
EXTT16=
EXTT17=
EXTT18=
EXTT19=
EXTT20=
EXTT21=
EXTT22=
EXTT23=
PLAYORDER=
